<svg width="62" height="62" viewBox="0 0 62 62" fill="none" xmlns="http://www.w3.org/2000/svg">
<path d="M30.625 0C24.568 0 18.6469 1.79613 13.6107 5.16124C8.57442 8.52636 4.64914 13.3093 2.3312 18.9053C0.0132693 24.5013 -0.593208 30.659 0.588465 36.5996C1.77014 42.5403 4.68688 47.9972 8.96987 52.2801C13.2529 56.5631 18.7097 59.4799 24.6504 60.6615C30.591 61.8432 36.7487 61.2367 42.3447 58.9188C47.9407 56.6009 52.7237 52.6756 56.0888 47.6393C59.4539 42.6031 61.25 36.6821 61.25 30.625C61.25 22.5027 58.0235 14.7132 52.2802 8.96985C46.5369 3.22655 38.7473 0 30.625 0ZM26.25 42.8531L15.3125 31.9156L18.7906 28.4375L26.25 35.8969L42.4594 19.6875L45.9506 23.1569L26.25 42.8531Z" fill="#34A2D3"/>
</svg>
